{"accessors":[{"bufferView":1,"componentType":5126,"count":47406,"max":[100.99199676513672,69.88306427001953,149.96881103515625],"min":[-101.19691467285156,-69.71806335449219,0.7017783522605896],"type":"VEC3"},{"bufferView":1,"byteOffset":568872,"componentType":5126,"count":47406,"max":[0.9999879598617554,1,1],"min":[-0.9999954700469971,-1,-1],"type":"VEC3"},{"bufferView":2,"componentType":5126,"count":47406,"max":[1,1,1,1],"min":[1,1,1,1],"type":"VEC4"},{"bufferView":0,"componentType":5125,"count":253998,"max":[47405],"min":[0],"type":"SCALAR"}],"asset":{"extras":{"author":"trirom (https://sketchfab.com/trirom)","license":"CC-BY-4.0 (http://creativecommons.org/licenses/by/4.0/)","source":"https://sketchfab.com/models/28fb553644a1466daca78629e617e77a","title":"Scull Geant Fix02"},"generator":"Sketchfab-3.29.3","version":"2.0"},"bufferViews":[{"buffer":0,"byteLength":1015992,"byteOffset":0,"name":"floatBufferViews","target":34963},{"buffer":0,"byteLength":1137744,"byteOffset":1015992,"byteStride":12,"name":"floatBufferViews","target":34962},{"buffer":0,"byteLength":758496,"byteOffset":2153736,"byteStride":16,"name":"floatBufferViews","target":34962}],"buffers":[{"byteLength":2912232,"uri":"data:application/octet-stream;base64,"}],"materials":[{"doubleSided":true,"emissiveFactor":[0,0,0],"name":"Scene_-_Root","pbrMetallicRoughness":{"baseColorFactor":[0.5,0.5,0.5,1],"metallicFactor":0,"roughnessFactor":0.6}}],"meshes":[{"primitives":[{"attributes":{"COLOR_0":2,"NORMAL":1,"POSITION":0},"indices":3,"material":0,"mode":4}]}],"nodes":[{"children":[1],"name":"RootNode (gltf orientation matrix)","rotation":[-0.7071067811865475,0,0,0.7071067811865476]},{"children":[2],"name":"RootNode (model correction matrix)"},{"children":[3],"name":"b7c8693cbf304c919a6ea2e7ff7ed25a.stl.cleaner"},{"mesh":0,"name":""}],"scene":0,"scenes":[{"name":"OSG_Scene","nodes":[0]}]}